Coordinates
version=1
nRows=13
nColumns=38
inDegrees=no

Units are S.I. units (second, meters, Newtons, ...)
If the header above contains a line with 'inDegrees', this indicates whether rotational values are in degrees (yes) or radians (no).

endheader
time	pelvis_tilt	pelvis_list	pelvis_rotation	pelvis_tx	pelvis_ty	pelvis_tz	hip_flexion_r	hip_adduction_r	hip_rotation_r	knee_angle_r	ankle_angle_r	subtalar_angle_r	mtp_angle_r	hip_flexion_l	hip_adduction_l	hip_rotation_l	knee_angle_l	ankle_angle_l	subtalar_angle_l	mtp_angle_l	lumbar_extension	lumbar_bending	lumbar_rotation	arm_flex_r	arm_add_r	arm_rot_r	elbow_flex_r	pro_sup_r	wrist_flex_r	wrist_dev_r	arm_flex_l	arm_add_l	arm_rot_l	elbow_flex_l	pro_sup_l	wrist_flex_l	wrist_dev_l
1.39	0.131966	-0.0653645	-0.0336041	0.807714	0.956043	-0.32167	-0.139807	0.15062	-0.00577002	-0.698396	0.444935	-0.0290223	-0.00231454	0.509425	-0.0706228	0.0047516	-1.9184	-0.130437	0.0040637	-0.0435967	-0.434018	-0.0178146	0.0814963	-0.277437	-0.451433	-0.288047	1.83583	1.34028	0.0144776	-0.0516297	-0.37692	-0.289166	-0.0808346	1.40086	1.92552	0.0661847	-0.0523579
1.4	0.119187	-0.0310841	-0.0307188	0.811154	0.959997	-0.322181	-0.216417	0.108181	-0.0145103	-0.623761	0.377314	-0.0290223	-0.00231454	0.574065	-0.0366483	-0.0107443	-1.84045	-0.103813	0.0040637	-0.0435967	-0.412159	-0.05654	0.0806473	-0.264596	-0.461726	-0.287351	1.86161	1.34589	0.0144776	-0.0516297	-0.448403	-0.289803	-0.115628	1.43994	1.90277	0.0661847	-0.0523579
1.41	0.106182	0.00336479	-0.0293098	0.815066	0.96438	-0.322665	-0.288974	0.0650185	-0.0305128	-0.549323	0.287222	-0.0290223	-0.00231454	0.627099	-0.00624761	-0.0340258	-1.7439	-0.0782884	0.0040637	-0.0435967	-0.390254	-0.096396	0.0777835	-0.254725	-0.469997	-0.284945	1.88765	1.35237	0.0144776	-0.0516297	-0.52221	-0.28784	-0.153924	1.48624	1.87899	0.0661847	-0.0523579
1.42	0.093792	0.0355934	-0.0296137	0.819216	0.969066	-0.323091	-0.355653	0.023878	-0.0524313	-0.480533	0.17989	-0.0290223	-0.00231454	0.666774	0.0193062	-0.061798	-1.62923	-0.0538225	0.0040637	-0.0435967	-0.369458	-0.134908	0.0741547	-0.247047	-0.476619	-0.280445	1.91258	1.35973	0.0144776	-0.0516297	-0.595416	-0.28266	-0.19463	1.53582	1.85706	0.0661847	-0.0523579
1.43	0.0826787	0.063302	-0.0316796	0.823369	0.973888	-0.323412	-0.414722	-0.0126617	-0.0778299	-0.422752	0.0622829	-0.0290223	-0.00231454	0.692027	0.0391703	-0.0901511	-1.49743	-0.0304292	0.0040637	-0.0435967	-0.350607	-0.169503	0.0712631	-0.241353	-0.481793	-0.274311	1.93536	1.36807	0.0144776	-0.0516297	-0.664757	-0.274337	-0.235915	1.58486	1.83884	0.0661847	-0.0523579
1.44	0.0732802	0.0845436	-0.0354016	0.82733	0.978642	-0.323585	-0.464669	-0.0424631	-0.103423	-0.380841	-0.0576081	-0.0290223	-0.00231454	0.702622	0.0528959	-0.115185	-1.35046	-0.0081917	0.0040637	-0.0435967	-0.334214	-0.197833	0.070613	-0.237929	-0.485586	-0.267614	1.95527	1.37754	0.0144776	-0.0516297	-0.72703	-0.26358	-0.275507	1.63015	1.82502	0.0661847	-0.0523579
1.45	0.0659353	0.0980436	-0.0405278	0.830966	0.983134	-0.323572	-0.504464	-0.0641434	-0.125644	-0.358778	-0.171646	-0.0290223	-0.00231454	0.699121	0.0604604	-0.133644	-1.19166	0.0127518	0.0040637	-0.0435967	-0.320717	-0.218239	0.073085	-0.237053	-0.488062	-0.2613	1.97185	1.38809	0.0144776	-0.0516297	-0.779754	-0.251408	-0.311425	1.66951	1.81529	0.0661847	-0.0523579
1.46	0.0609712	0.103398	-0.0466856	0.834213	0.987218	-0.323363	-0.533732	-0.0772994	-0.141409	-0.359301	-0.272583	-0.0290223	-0.00231454	0.682851	0.0622762	-0.143421	-1.02601	0.032197	0.0040637	-0.0435967	-0.310643	-0.230025	0.0786935	-0.238771	-0.489361	-0.255832	1.98482	1.39942	0.0144776	-0.0516297	-0.821445	-0.238933	-0.34231	1.70197	1.80862	0.0661847	-0.0523579
1.47	0.0587419	0.101152	-0.0534135	0.837029	0.99075	-0.322995	-0.552769	-0.0826061	-0.14891	-0.383703	-0.355036	-0.0290223	-0.00231454	0.65585	0.059196	-0.143809	-0.860211	0.0498398	0.0040637	-0.0435967	-0.304639	-0.233542	0.0866238	-0.242875	-0.489706	-0.25114	1.99402	1.41091	0.0144776	-0.0516297	-0.851603	-0.227234	-0.367474	1.72765	1.80364	0.0661847	-0.0523579
1.48	0.0596017	0.0927249	-0.0601899	0.839442	0.993704	-0.322578	-0.562398	-0.0817806	-0.148189	-0.431805	-0.416239	-0.0290223	-0.00231454	0.620756	0.0525122	-0.135485	-0.702292	0.0652458	0.0040637	-0.0435967	-0.30339	-0.230089	0.09546	-0.248998	-0.489348	-0.24678	1.99936	1.42166	0.0144776	-0.0516297	-0.870506	-0.217307	-0.386778	1.74743	1.79903	0.0661847	-0.0523579
1.49	0.0637904	0.080226	-0.066477	0.841454	0.996062	-0.322284	-0.563705	-0.0773888	-0.141244	-0.502061	-0.456343	-0.0290223	-0.00231454	0.580622	0.0439109	-0.12026	-0.560826	0.0778564	0.0040637	-0.0435967	-0.307441	-0.221671	0.103521	-0.256759	-0.488487	-0.242213	2.00079	1.43078	0.0144776	-0.0516297	-0.87891	-0.21006	-0.400405	1.76258	1.79377	0.0661847	-0.0523579
1.5	0.0712853	0.0661038	-0.0717666	0.843053	0.997808	-0.322301	-0.557712	-0.0724854	-0.131502	-0.591768	-0.478089	-0.0290223	-0.00231454	0.538658	0.0353476	-0.100706	-0.443826	0.0870466	0.0040637	-0.0435967	-0.31693	-0.210673	0.109221	-0.265928	-0.48719	-0.237105	1.99826	1.43763	0.0144776	-0.0516297	-0.877721	-0.206328	-0.408612	1.77436	1.78736	0.0661847	-0.0523579
1.51	0.0816565	0.0527961	-0.075637	0.844202	0.9989	-0.322773	-0.545109	-0.070084	-0.12276	-0.697321	-0.485835	-0.0290223	-0.00231454	0.497915	0.0288077	-0.079711	-0.357545	0.0922678	0.0040637	-0.0435967	-0.331384	-0.19946	0.111403	-0.276539	-0.485351	-0.231535	1.99167	1.44192	0.0144776	-0.0516297	-0.867719	-0.206864	-0.411528	1.78366	1.77969	0.0661847	-0.0523579
